<?xml version="1.0" encoding="utf-8"?>
<!-- Generator: Adobe Illustrator 16.0.0, SVG Export Plug-In . SVG Version: 6.00 Build 0)  -->
<!DOCTYPE svg PUBLIC "-//W3C//DTD SVG 1.1//EN" "http://www.w3.org/Graphics/SVG/1.1/DTD/svg11.dtd">
<svg version="1.1" id="AFI_LOGO" xmlns="http://www.w3.org/2000/svg" xmlns:xlink="http://www.w3.org/1999/xlink" x="0px" y="0px"
	 width="432px" height="216px" viewBox="0 0 432 216" enable-background="new 0 0 432 216" xml:space="preserve">
<polygon id="Star" fill="#B3B3B3" points="196.49,135.35 225.203,108.438 140.228,108.438 64.347,72.144 101.875,108.438 
	28.583,108.438 127.801,133.514 162.57,167.143 183.445,147.576 260.93,167.125 262.92,167.125 "/>
<g id="AFI">
	<polygon fill="#E31837" points="281.299,47.122 281.299,167.125 296.635,167.125 296.635,108.449 357.254,108.449 357.254,94.381 
		296.635,94.381 296.635,61.19 357.232,61.19 357.232,47.122 	"/>
	<rect x="372.52" y="47.122" fill="#E31837" width="15.338" height="120.003"/>
	<polygon fill="#E31837" points="219.996,41.747 162.57,167.125 179.062,167.125 219.996,75.458 260.93,167.125 277.42,167.125 	"/>
</g>
</svg>
