<?xml version="1.0" encoding="utf-8"?>
<!-- Generator: Adobe Illustrator 16.0.0, SVG Export Plug-In . SVG Version: 6.00 Build 0)  -->
<!DOCTYPE svg PUBLIC "-//W3C//DTD SVG 1.1//EN" "http://www.w3.org/Graphics/SVG/1.1/DTD/svg11.dtd">
<svg version="1.1" id="Layer_1" xmlns="http://www.w3.org/2000/svg" xmlns:xlink="http://www.w3.org/1999/xlink" x="0px" y="0px"
	 width="792px" height="612px" viewBox="0 0 792 612" enable-background="new 0 0 792 612" xml:space="preserve">
<rect x="-926.954" y="-18" fill="#DCDDDE" width="851.957" height="647.968"/>
<g>
	<path d="M-384.405,193.812h-1.945l-1.699,3.136h0.721c29.239,0,51.723,8.402,58.136,33.992
		c10.919,43.573-32.401,87.428-93.204,87.428h-34.179l23.136-46.576h-4.686l-30.245,59.546h47.718
		c65.186,0,104.025-44.534,104.025-84.97C-316.628,221.951-331.482,193.812-384.405,193.812z"/>
	<polygon points="-594.008,260.282 -664.082,260.204 -620.339,196.841 -618.215,196.841 -619.736,193.791 -621.866,193.786 
		-717.112,330.419 -712.556,330.419 -671.948,271.597 -592.906,271.717 -561.858,330.698 -557.883,330.698 	"/>
	<path d="M-558.623,350.121h4.057l2.186,10.06c0.189,0.926,0.234,1.209,0.355,2.229c0.164-1.091,0.215-1.304,0.522-2.351
		l3.299-9.938h4.361l3.155,9.322c0.383,1.165,0.453,1.476,0.664,2.801c0.099-1.138,0.145-1.472,0.357-2.658l2.134-9.465h4.014
		l-4.393,16.751h-4.105l-3.391-10.153c-0.355-1.116-0.403-1.329-0.616-2.445c-0.264,1.116-0.333,1.329-0.642,2.373l-3.391,10.226
		h-4.178L-558.623,350.121z"/>
	<path d="M-517.042,360.678c0,4.367-3.703,6.689-8.21,6.689c-4.909,0-8.257-2.537-8.257-6.499c0-4.033,3.608-6.572,8.4-6.545
		C-519.842,354.342-517.042,357.264-517.042,360.678z M-529.453,360.919c0,0.661,0.263,3.555,4.223,3.555
		c3.228,0,4.153-2.063,4.153-3.725c0-2.131-1.659-3.703-4.389-3.558C-528.313,357.333-529.453,359.065-529.453,360.919z"/>
	<path d="M-514.355,354.866h3.702v1.853c0.26-0.358,0.52-0.763,1.065-1.169c1.139-0.828,2.562-1.113,3.959-1.113
		c1.495,0,2.637,0.357,3.373,0.811c0.759,0.495,1.066,1.041,1.326,1.472c0.191-0.216,0.357-0.453,0.691-0.763
		c1.257-1.09,2.936-1.52,4.622-1.52c0.781,0,1.972,0.121,2.992,0.645c1.897,0.969,1.897,2.585,1.897,3.843v7.919h-3.917v-7.257
		c-0.021-0.95-0.041-2.54-2.659-2.54c-0.705,0-1.441,0.12-2.085,0.5c-1.018,0.619-1.185,1.686-1.185,3.037v6.289h-3.94v-6.881
		c0-0.449,0-0.877-0.12-1.282c-0.332-1.14-1.325-1.543-2.393-1.543c-0.879,0-1.732,0.119-2.441,0.62
		c-1.024,0.736-0.973,1.728-0.973,2.561v6.525h-3.916V354.866z"/>
	<path d="M-484.002,361.535c0.096,0.376,0.309,1.112,0.731,1.612c0.832,0.995,2.16,1.374,3.441,1.374
		c2.539,0,3.468-1.21,3.822-1.661l4.055,0.406c-1.753,2.889-4.691,4.078-8.064,4.078c-2.041,0-4.15-0.38-5.742-1.683
		c-1.592-1.284-2.256-3.203-2.256-4.913c0-4.413,3.775-6.355,8.047-6.355c1.638,0,4.41,0.353,6.238,2.301
		c1.588,1.688,1.615,3.605,1.637,4.841H-484.002z M-476.409,359.376c-0.073-0.452-0.264-1.143-1.066-1.616
		c-0.572-0.329-1.518-0.616-2.564-0.616c-0.925,0-1.969,0.217-2.681,0.688c-0.687,0.451-0.925,0.972-1.161,1.545H-476.409z"/>
	<path d="M-469.359,354.866h3.868v1.708c0.619-0.638,1.991-2.063,5.291-2.063c2.895,0,4.199,1.33,4.528,1.708
		c1.051,1.185,1.051,2.705,1.071,4.008v6.669l-3.916-0.023v-6.145c0-0.901-0.047-2.019-0.949-2.78
		c-0.402-0.328-1.044-0.684-2.371-0.684c-1.092,0-1.943,0.282-2.443,0.567c-1.09,0.639-1.211,1.779-1.211,2.561v6.48h-3.868V354.866
		z"/>
	<g>
		<path fill="#E31B23" d="M-390.156,196.932l-0.009,0.017h3.473l1.699-3.136h-4.008v0.013h-160.395l34.791,67.749l-21.066,39.515
			h-0.558l-54.844-107.244l-30.378-0.054l1.747,3.485l69.432,133.521h3.657l34.537-64.349h0.571l31.74,64.349h3.646l64.882-121.354
			C-407.118,201.658-402.249,197.549-390.156,196.932z M-500.28,233.537l-18.525-36.696h23.309c10.111,0,11.234,2.433,11.234,4.693
			c0,1.694-0.559,4.137-2.527,7.722l-12.931,24.281H-500.28z M-417.122,210.571l-48.047,90.518h-0.557l-31.182-63.228l16.581-30.674
			c4.203-8.659,13.728-10.345,24.949-10.345h29.253c9.564,0,12.359,2.433,12.359,5.264
			C-413.765,203.608-414.325,205.112-417.122,210.571z"/>
		<path fill="#E31B23" d="M-708.777,350.121h4.53l8.089,16.751h-4.696l-1.426-3.156h-8.588l-1.421,3.156h-4.578L-708.777,350.121z
			 M-706.123,355.27c-0.118-0.213-0.212-0.45-0.282-0.667c-0.074-0.209-0.12-0.421-0.143-0.66c-0.071,0.211-0.119,0.399-0.168,0.588
			c-0.095,0.216-0.166,0.431-0.259,0.645l-2.538,5.574h5.881L-706.123,355.27z"/>
		<path fill="#E31B23" d="M-694.396,350.121h3.894v16.751h-3.894V350.121z"/>
		<path fill="#E31B23" d="M-686.969,350.121h3.894v16.751h-3.894V350.121z"/>
		<path fill="#E31B23" d="M-675.624,354.866v12.006h-3.894v-12.006H-675.624z"/>
		<path fill="#E31B23" d="M-657.805,365.399c0.047,0.642,0.117,0.9,0.545,1.473h-4.246c-0.192-0.572-0.215-0.951-0.239-1.284
			c-1.281,0.762-2.681,1.59-5.362,1.59c-0.947,0-1.896-0.071-2.8-0.335c-1.681-0.47-2.964-1.729-2.964-3.647
			c0-3.796,3.652-3.842,7.425-3.896h3.702c0.024-1.018,0.072-2.156-3.367-2.156c-1.306,0-2.871,0.12-3.18,1.09h-3.962
			c0.141-0.709,0.355-1.85,1.754-2.752c1.637-1.021,4.368-1.045,5.505-1.045c7.21,0,7.189,2.801,7.189,5.314V365.399z
			 M-667.271,361.558c-0.286,0.071-1.472,0.332-1.472,1.494c0,1.517,2.111,1.542,2.612,1.542c1.637,0,3.271-0.666,4.005-1.8
			c0.382-0.55,0.356-0.93,0.382-1.475C-664.33,361.319-666.179,361.319-667.271,361.558z"/>
		<path fill="#E31B23" d="M-654.313,354.866h3.867v1.708c0.617-0.638,1.995-2.063,5.289-2.063c2.897,0,4.202,1.33,4.533,1.708
			c1.045,1.185,1.045,2.705,1.071,4.008v6.669l-3.914-0.023v-6.145c0-0.901-0.051-2.019-0.954-2.78
			c-0.399-0.328-1.043-0.684-2.369-0.684c-1.093,0-1.947,0.282-2.444,0.567c-1.093,0.639-1.211,1.779-1.211,2.561v6.48h-3.867
			V354.866z"/>
		<path fill="#E31B23" d="M-621.4,363.147c-1.66,3.251-5.218,4.22-7.712,4.22c-3.981,0-7.732-2.254-7.732-6.521
			c0-4.844,4.553-6.479,7.926-6.479c1.633,0,3.747,0.407,5.336,1.518c1.187,0.853,1.612,1.66,1.943,2.324l-4.08,0.477
			c-0.332-0.428-1.138-1.378-3.2-1.378c-2.279,0-3.965,1.494-3.965,3.512c0,1.565,1.139,3.558,3.918,3.558
			c0.852,0,1.777-0.215,2.487-0.641c0.76-0.449,0.926-0.83,1.092-1.136L-621.4,363.147z"/>
		<path fill="#E31B23" d="M-616.529,361.535c0.093,0.376,0.306,1.112,0.734,1.612c0.832,0.995,2.157,1.374,3.439,1.374
			c2.536,0,3.463-1.21,3.818-1.661l4.061,0.406c-1.758,2.889-4.7,4.078-8.067,4.078c-2.042,0-4.153-0.38-5.741-1.683
			c-1.59-1.284-2.255-3.203-2.255-4.913c0-4.413,3.769-6.355,8.042-6.355c1.636,0,4.411,0.353,6.238,2.301
			c1.591,1.688,1.613,3.605,1.638,4.841H-616.529z M-608.941,359.376c-0.068-0.452-0.258-1.143-1.065-1.616
			c-0.57-0.329-1.519-0.616-2.562-0.616c-0.925,0-1.969,0.217-2.681,0.688c-0.691,0.451-0.927,0.972-1.166,1.545H-608.941z"/>
		<path fill="#E31B23" d="M-577.375,360.678c0,4.367-3.704,6.689-8.211,6.689c-4.909,0-8.254-2.537-8.254-6.499
			c0-4.033,3.605-6.572,8.398-6.545C-580.176,354.342-577.375,357.264-577.375,360.678z M-589.783,360.919
			c0,0.661,0.258,3.555,4.222,3.555c3.226,0,4.151-2.063,4.151-3.725c0-2.131-1.661-3.703-4.386-3.558
			C-588.646,357.333-589.783,359.065-589.783,360.919z"/>
		<path fill="#E31B23" d="M-574.168,354.866c0-1.898,0-2.516,0.402-3.321c0.569-1.091,1.662-1.732,3.703-1.732
			c1.046,0,1.755,0.166,2.515,0.355v2.534c-0.332-0.114-0.594-0.185-1.042-0.185c-0.312,0-0.646,0.022-0.926,0.167
			c-0.735,0.38-0.735,0.947-0.735,2.182h2.703v2.325h-2.703v9.681h-3.917v-9.681h-1.921v-2.325H-574.168z"/>
		<path fill="#E31B23" d="M-442.065,350.121h9.158c0.613,0.024,1.236,0.024,1.852,0.097c4.883,0.447,7.306,3.863,7.306,8.181
			c0,1.924-0.479,3.821-1.64,5.363c-2.344,3.062-5.502,3.081-8.038,3.11h-8.638V350.121z M-437.89,353.084v10.821h4.627
			c1.492-0.025,3.203-0.048,4.318-1.639c0.496-0.687,1.021-1.849,1.021-3.961c0-1.587-0.357-2.682-0.836-3.439
			c-1.09-1.735-2.844-1.757-4.293-1.782H-437.89z"/>
		<path fill="#E31B23" d="M-416.981,354.866v12.006h-3.891v-12.006H-416.981z"/>
		<path fill="#E31B23" d="M-409.53,356.932c0.572-0.899,1.541-2.401,5.032-2.472v3.539c-0.331-0.024-0.614-0.052-1.021-0.052
			c-0.334,0-1.688,0.027-2.609,0.522c-1.211,0.645-1.402,1.568-1.402,2.613v5.789h-3.936v-12.006h3.936V356.932z"/>
		<path fill="#E31B23" d="M-399.443,361.535c0.095,0.376,0.308,1.112,0.734,1.612c0.833,0.995,2.161,1.374,3.44,1.374
			c2.539,0,3.466-1.21,3.822-1.661l4.057,0.406c-1.756,2.889-4.699,4.078-8.065,4.078c-2.042,0-4.154-0.38-5.743-1.683
			c-1.59-1.284-2.254-3.203-2.254-4.913c0-4.413,3.771-6.355,8.039-6.355c1.639,0,4.414,0.353,6.244,2.301
			c1.588,1.688,1.611,3.605,1.635,4.841H-399.443z M-391.85,359.376c-0.075-0.452-0.263-1.143-1.069-1.616
			c-0.568-0.329-1.518-0.616-2.562-0.616c-0.926,0-1.97,0.217-2.681,0.688c-0.687,0.451-0.924,0.972-1.159,1.545H-391.85z"/>
		<path fill="#E31B23" d="M-370.186,363.147c-1.661,3.251-5.218,4.22-7.71,4.22c-3.988,0-7.732-2.254-7.732-6.521
			c0-4.844,4.555-6.479,7.922-6.479c1.64,0,3.744,0.407,5.336,1.518c1.188,0.853,1.613,1.66,1.949,2.324l-4.08,0.477
			c-0.335-0.428-1.138-1.378-3.205-1.378c-2.275,0-3.961,1.494-3.961,3.512c0,1.565,1.139,3.558,3.916,3.558
			c0.849,0,1.778-0.215,2.488-0.641c0.762-0.449,0.924-0.83,1.089-1.136L-370.186,363.147z"/>
		<path fill="#E31B23" d="M-368.112,351.663h3.888v3.203h2.68v2.325h-2.68v5.434c0,1.162,0.403,1.424,1.515,1.424
			c0.551,0,0.786-0.022,1.188-0.072v2.802c-0.949,0.094-1.896,0.187-2.844,0.187c-0.829,0-1.662-0.093-2.328-0.429
			c-1.399-0.733-1.418-2.015-1.418-2.916v-6.429h-1.947v-2.325h1.947V351.663z"/>
		<path fill="#E31B23" d="M-343.963,360.678c0,4.367-3.699,6.689-8.213,6.689c-4.907,0-8.253-2.537-8.253-6.499
			c0-4.033,3.607-6.572,8.4-6.545C-346.757,354.342-343.963,357.264-343.963,360.678z M-356.369,360.919
			c0,0.661,0.261,3.555,4.225,3.555c3.223,0,4.147-2.063,4.147-3.725c0-2.131-1.658-3.703-4.383-3.558
			C-355.23,357.333-356.369,359.065-356.369,360.919z"/>
		<path fill="#E31B23" d="M-337.335,356.932c0.569-0.899,1.54-2.401,5.028-2.472v3.539c-0.331-0.024-0.618-0.052-1.021-0.052
			c-0.334,0-1.684,0.027-2.608,0.522c-1.207,0.645-1.399,1.568-1.399,2.613v5.789h-3.938v-12.006h3.938V356.932z"/>
		<path fill="#E31B23" d="M-326.872,362.794c0.453,1.565,2.02,1.847,3.561,1.847c0.713,0,1.399-0.024,2.063-0.263
			c0.188-0.072,0.878-0.306,0.878-0.973c0-0.831-0.952-0.995-2.755-1.232c-0.946-0.117-1.896-0.166-2.845-0.283
			c-1.255-0.147-4.434-0.523-4.434-3.439c0-2.871,2.965-4.177,6.995-4.177c1.237,0,3.609,0.095,5.388,1.377
			c1.212,0.879,1.491,1.874,1.66,2.443l-4.054,0.261c-0.356-0.854-1.352-1.469-3.231-1.469c-1.612,0-2.727,0.423-2.727,1.185
			c0,0.497,0.476,0.732,1.02,0.854c0.709,0.19,1.093,0.213,4.485,0.542c0.897,0.097,1.923,0.191,2.729,0.594
			c1.162,0.549,1.824,1.637,1.824,2.918c0,1.023-0.425,1.994-1.159,2.658c-0.878,0.808-2.562,1.662-5.956,1.662
			c-5.525,0-7.091-2.04-7.641-4.196L-326.872,362.794z"/>
		<rect x="-679.514" y="350.127" fill="#E31B23" width="3.89" height="2.66"/>
		<rect x="-420.872" y="350.098" fill="#E31B23" width="3.891" height="2.655"/>
	</g>
</g>
<g>
	<path fill="#E31B23" d="M-649.614,388.384h3.71l3.596,8.809c0.209,0.553,0.266,0.724,0.4,1.276c0.171-0.61,0.209-0.762,0.438-1.276
		l3.615-8.809h3.616l-6.032,13.433h-3.272L-649.614,388.384z"/>
	<path fill="#E31B23" d="M-632.19,388.384h3.368v13.433h-3.368V388.384z"/>
	<path fill="#E31B23" d="M-623.279,397.649c0.761,1.617,2.683,2.112,4.509,2.112c0.818,0,3.388-0.134,3.388-1.77
		c0-0.971-0.933-1.199-1.655-1.331c-0.552-0.115-3.311-0.533-3.939-0.648c-1.237-0.229-4.357-0.818-4.357-3.862
		c0-0.666,0.19-1.351,0.533-1.902c1.122-1.808,3.595-2.283,5.727-2.283c1.959,0,3.463,0.285,4.852,1.046
		c1.369,0.743,1.959,1.731,2.227,2.17l-3.197,0.799c-0.114-0.21-0.38-0.704-1.18-1.104c-0.894-0.438-2.055-0.514-2.702-0.514
		c-1.485,0-3.007,0.285-3.007,1.56c0,0.876,0.781,1.104,1.789,1.333c0.551,0.113,3.292,0.57,3.919,0.703
		c1.561,0.286,4.206,0.857,4.206,3.806c0,4.319-5.139,4.472-6.832,4.472c-2.208,0-5.614-0.381-7.345-3.787L-623.279,397.649z"/>
	<path fill="#E31B23" d="M-609.395,388.384h3.369v13.433h-3.369V388.384z"/>
	<path fill="#E31B23" d="M-588.249,390.571c0.552,0.666,1.446,2.15,1.446,4.396c0,4.281-2.777,7.287-8.201,7.287
		s-8.296-2.948-8.296-7.135c0-4.624,3.311-6.964,7.725-7.154C-592.929,387.851-589.922,388.536-588.249,390.571z M-599.836,395.194
		c0,1.637,0.609,2.494,0.856,2.816c0.324,0.458,1.314,1.846,3.921,1.846c3.139,0,4.813-2.131,4.813-4.719
		c0-3.006-2.264-4.852-4.947-4.756C-597.438,390.457-599.836,391.94-599.836,395.194z"/>
	<path fill="#E31B23" d="M-584.027,388.384h3.35l6.583,7.478c0.799,0.932,0.952,1.122,1.789,2.169
		c-0.115-1.275-0.115-1.618-0.134-2.777v-6.869h3.216v13.433h-3.329l-6.66-7.572c-0.705-0.818-0.99-1.161-1.732-2.112
		c0.096,1.027,0.096,1.255,0.114,2.283v7.401h-3.197V388.384z"/>
	<path d="M-565.992,388.384h11.931v1.617h-10.066v4.318h9.686v1.599h-9.686v5.898h-1.865V388.384z"/>
	<path d="M-535.515,395.29c0,4.586-3.768,6.889-8.087,6.889c-1.96,0-3.938-0.362-5.518-1.485c-1.313-0.912-2.72-2.587-2.72-5.422
		c0-4.967,4.091-7.212,8.104-7.212C-539.035,388.078-535.515,390.838-535.515,395.29z M-549.938,395.157
		c0,1.046,0.266,2.397,1.18,3.425c1.256,1.465,3.216,1.941,5.156,1.941c4.967,0,6.165-3.141,6.165-5.423
		c0-3.54-2.835-5.5-6.507-5.405C-546.741,389.772-549.938,391.181-549.938,395.157z"/>
	<path d="M-516.756,398.126c-0.513,0.912-1.046,1.826-2.379,2.663c-1.655,1.047-3.786,1.352-5.403,1.352
		c-5.461,0-8.163-3.14-8.163-7.136c0-3.178,1.579-4.643,2.493-5.328c0.571-0.456,2.169-1.693,5.613-1.693
		c0.97,0,3.311,0.133,5.119,1.256c1.427,0.894,2.092,2.018,2.454,2.626l-2.055,0.456c-0.305-0.531-0.628-1.103-1.466-1.655
		c-0.818-0.533-2.264-1.008-3.977-1.008c-3.197,0-6.165,1.504-6.165,5.289c0,1.333,0.38,2.702,1.388,3.825
		c0.914,0.933,2.475,1.712,4.89,1.712c2.075,0.021,3.464-0.513,4.282-1.16c0.723-0.533,1.16-1.218,1.35-1.617L-516.756,398.126z"/>
	<path d="M-511.772,388.384v7.972c0.019,1.561,0.171,2.474,1.332,3.216c0.495,0.324,1.561,0.913,3.691,0.913
		c1.293,0,2.436-0.247,3.178-0.589c1.731-0.78,1.731-2.17,1.731-3.293v-8.219h1.923v8.067c0,1.351,0,3.196-2.056,4.528
		c-0.933,0.609-2.436,1.161-4.795,1.161c-1.751,0-3.52-0.286-4.966-1.294c-1.903-1.312-1.96-3.045-1.96-4.566v-7.896H-511.772z"/>
	<path d="M-495.717,398.373c0.21,0.247,0.419,0.475,0.933,0.817c1.465,1.009,3.254,1.314,5.023,1.314
		c2.949,0,4.566-1.086,4.566-2.723c0-1.864-2.111-2.035-4.775-2.264c-3.368-0.285-4.529-0.381-5.557-1.313
		c-0.818-0.761-0.951-1.616-0.951-2.245c0-3.824,5.062-3.92,6.299-3.92c1.883,0,3.786,0.306,5.347,1.352
		c0.665,0.457,0.971,0.818,1.351,1.351l-1.731,0.704c-0.285-0.284-0.456-0.475-0.78-0.704c-1.199-0.856-2.683-1.122-4.147-1.122
		c-1.085,0-2.436,0.152-3.235,0.552c-0.933,0.457-1.199,1.142-1.199,1.693c0,0.399,0.153,0.762,0.4,1.027
		c0.457,0.533,1.161,0.646,2.416,0.78c1.219,0.134,2.417,0.209,3.635,0.343c0.571,0.057,1.161,0.133,1.731,0.267
		c1.446,0.343,3.083,1.274,3.083,3.481c0,0.552-0.096,1.408-0.686,2.245c-1.047,1.484-3.12,2.132-5.898,2.132
		c-1.104,0-2.512-0.152-3.463-0.399c-2.76-0.686-3.729-2.094-4.109-2.645L-495.717,398.373z"/>
	<path fill="#E31B23" d="M-475.667,388.384h3.635l6.488,13.433h-3.768l-1.141-2.53h-6.889l-1.143,2.53h-3.672L-475.667,388.384z
		 M-473.534,392.512c-0.096-0.171-0.172-0.361-0.23-0.532c-0.057-0.171-0.094-0.343-0.113-0.533
		c-0.057,0.172-0.096,0.323-0.133,0.476c-0.076,0.172-0.133,0.343-0.21,0.515l-2.036,4.472h4.719L-473.534,392.512z"/>
	<path fill="#E31B23" d="M-448.099,397.251c-0.248,0.837-0.552,1.807-1.75,2.91c-1.086,0.99-2.873,2.112-6.299,2.112
		c-4.776,0-8.087-2.492-8.087-7.192c0-5.062,4.034-7.116,8.277-7.116c1.54,0,5.956,0.342,7.706,4.186l-3.691,0.457
		c-0.361-0.57-1.408-2.169-4.015-2.169c-3.044,0-4.776,2.111-4.776,4.681c0,2.93,2.303,4.681,4.852,4.681
		c2.911,0,3.807-1.712,4.244-2.53L-448.099,397.251z"/>
	<path fill="#E31B23" d="M-446.69,388.384h13.34v2.454h-4.986v10.979h-3.367v-10.979h-4.986V388.384z"/>
	<path fill="#E31B23" d="M-430.6,388.384h3.368v13.433h-3.368V388.384z"/>
	<path fill="#E31B23" d="M-409.454,390.571c0.553,0.666,1.446,2.15,1.446,4.396c0,4.281-2.777,7.287-8.2,7.287
		c-5.424,0-8.297-2.948-8.297-7.135c0-4.624,3.311-6.964,7.725-7.154C-414.135,387.851-411.128,388.536-409.454,390.571z
		 M-421.042,395.194c0,1.637,0.609,2.494,0.855,2.816c0.324,0.458,1.314,1.846,3.921,1.846c3.14,0,4.813-2.131,4.813-4.719
		c0-3.006-2.264-4.852-4.947-4.756C-418.644,390.457-421.042,391.94-421.042,395.194z"/>
	<path fill="#E31B23" d="M-405.233,388.384h3.35l6.584,7.478c0.799,0.932,0.951,1.122,1.788,2.169
		c-0.114-1.275-0.114-1.618-0.134-2.777v-6.869h3.217v13.433h-3.33l-6.66-7.572c-0.704-0.818-0.989-1.161-1.731-2.112
		c0.096,1.027,0.096,1.255,0.114,2.283v7.401h-3.197V388.384z"/>
	<path fill="#E31B23" d="M-386.798,388.384h3.102v5.137l-0.494,4.338h-2.151l-0.456-4.338V388.384z M-386.798,399.438h3.102v2.378
		h-3.102V399.438z"/>
</g>
<g>
	<path d="M518.55,193.812h-1.945l-1.699,3.136h0.721c29.239,0,51.723,8.402,58.136,33.992
		c10.919,43.573-32.401,87.428-93.204,87.428h-34.179l23.136-46.576h-4.686l-30.245,59.546h47.718
		c65.186,0,104.025-44.534,104.025-84.97C586.327,221.951,571.473,193.812,518.55,193.812z"/>
	<polygon points="308.947,260.282 238.873,260.204 282.616,196.841 284.739,196.841 283.22,193.791 281.089,193.786 
		185.843,330.419 190.399,330.419 231.007,271.597 310.05,271.717 341.097,330.698 345.072,330.698 	"/>
	<path d="M344.332,350.121h4.057l2.187,10.06c0.188,0.926,0.233,1.209,0.354,2.229c0.163-1.091,0.215-1.304,0.522-2.351l3.299-9.938
		h4.361l3.154,9.322c0.383,1.165,0.453,1.476,0.664,2.801c0.1-1.138,0.145-1.472,0.357-2.658l2.134-9.465h4.015l-4.393,16.751
		h-4.105l-3.391-10.153c-0.355-1.116-0.403-1.329-0.616-2.445c-0.264,1.116-0.333,1.329-0.642,2.373l-3.391,10.226h-4.178
		L344.332,350.121z"/>
	<path d="M385.913,360.678c0,4.367-3.703,6.689-8.211,6.689c-4.909,0-8.258-2.537-8.258-6.499c0-4.033,3.608-6.572,8.4-6.545
		C383.113,354.342,385.913,357.264,385.913,360.678z M373.503,360.919c0,0.661,0.262,3.555,4.223,3.555
		c3.229,0,4.153-2.063,4.153-3.725c0-2.131-1.659-3.703-4.39-3.558C374.642,357.333,373.503,359.065,373.503,360.919z"/>
	<path d="M388.601,354.866h3.701v1.853c0.261-0.358,0.521-0.763,1.066-1.169c1.139-0.828,2.562-1.113,3.959-1.113
		c1.494,0,2.637,0.357,3.373,0.811c0.759,0.495,1.066,1.041,1.326,1.472c0.191-0.216,0.357-0.453,0.691-0.763
		c1.257-1.09,2.936-1.52,4.622-1.52c0.781,0,1.972,0.121,2.992,0.645c1.897,0.969,1.897,2.585,1.897,3.843v7.919h-3.917v-7.257
		c-0.021-0.95-0.041-2.54-2.659-2.54c-0.705,0-1.441,0.12-2.085,0.5c-1.018,0.619-1.185,1.686-1.185,3.037v6.289h-3.94v-6.881
		c0-0.449,0-0.877-0.12-1.282c-0.332-1.14-1.324-1.543-2.393-1.543c-0.88,0-1.732,0.119-2.441,0.62
		c-1.024,0.736-0.973,1.728-0.973,2.561v6.525h-3.916V354.866z"/>
	<path d="M418.953,361.535c0.096,0.376,0.309,1.112,0.731,1.612c0.832,0.995,2.16,1.374,3.441,1.374c2.539,0,3.468-1.21,3.822-1.661
		l4.055,0.406c-1.753,2.889-4.691,4.078-8.064,4.078c-2.041,0-4.15-0.38-5.742-1.683c-1.592-1.284-2.256-3.203-2.256-4.913
		c0-4.413,3.775-6.355,8.047-6.355c1.638,0,4.41,0.353,6.238,2.301c1.588,1.688,1.615,3.605,1.637,4.841H418.953z M426.546,359.376
		c-0.073-0.452-0.264-1.143-1.066-1.616c-0.572-0.329-1.518-0.616-2.564-0.616c-0.925,0-1.969,0.217-2.681,0.688
		c-0.687,0.451-0.925,0.972-1.161,1.545H426.546z"/>
	<path d="M433.596,354.866h3.868v1.708c0.619-0.638,1.991-2.063,5.291-2.063c2.895,0,4.199,1.33,4.528,1.708
		c1.051,1.185,1.051,2.705,1.071,4.008v6.669l-3.916-0.023v-6.145c0-0.901-0.047-2.019-0.949-2.78
		c-0.402-0.328-1.044-0.684-2.371-0.684c-1.092,0-1.943,0.282-2.443,0.567c-1.09,0.639-1.211,1.779-1.211,2.561v6.48h-3.868V354.866
		z"/>
	<g>
		<path fill="#E31B23" d="M512.799,196.932l-0.009,0.017h3.473l1.699-3.136h-4.008v0.013H353.56l34.79,67.749l-21.066,39.515h-0.558
			l-54.844-107.244l-30.379-0.054l1.747,3.485l69.432,133.521h3.657l34.536-64.349h0.571l31.74,64.349h3.646l64.882-121.354
			C495.837,201.658,500.706,197.549,512.799,196.932z M402.675,233.537l-18.525-36.696h23.309c10.111,0,11.234,2.433,11.234,4.693
			c0,1.694-0.559,4.137-2.527,7.722l-12.931,24.281H402.675z M485.833,210.571l-48.047,90.518h-0.557l-31.182-63.228l16.581-30.674
			c4.203-8.659,13.728-10.345,24.949-10.345h29.253c9.564,0,12.359,2.433,12.359,5.264
			C489.19,203.608,488.63,205.112,485.833,210.571z"/>
		<path fill="#E31B23" d="M194.179,350.121h4.529l8.09,16.751h-4.696l-1.427-3.156h-8.588l-1.421,3.156h-4.578L194.179,350.121z
			 M196.832,355.27c-0.118-0.213-0.212-0.45-0.282-0.667c-0.073-0.209-0.119-0.421-0.143-0.66c-0.07,0.211-0.119,0.399-0.168,0.588
			c-0.094,0.216-0.166,0.431-0.259,0.645l-2.538,5.574h5.881L196.832,355.27z"/>
		<path fill="#E31B23" d="M208.56,350.121h3.893v16.751h-3.893V350.121z"/>
		<path fill="#E31B23" d="M215.985,350.121h3.895v16.751h-3.895V350.121z"/>
		<path fill="#E31B23" d="M227.331,354.866v12.006h-3.895v-12.006H227.331z"/>
		<path fill="#E31B23" d="M245.15,365.399c0.047,0.642,0.116,0.9,0.546,1.473h-4.246c-0.192-0.572-0.215-0.951-0.239-1.284
			c-1.281,0.762-2.681,1.59-5.362,1.59c-0.947,0-1.896-0.071-2.801-0.335c-1.681-0.47-2.964-1.729-2.964-3.647
			c0-3.796,3.652-3.842,7.425-3.896h3.702c0.024-1.018,0.072-2.156-3.367-2.156c-1.306,0-2.871,0.12-3.181,1.09h-3.961
			c0.141-0.709,0.354-1.85,1.754-2.752c1.637-1.021,4.368-1.045,5.506-1.045c7.209,0,7.188,2.801,7.188,5.314V365.399z
			 M235.685,361.558c-0.287,0.071-1.473,0.332-1.473,1.494c0,1.517,2.111,1.542,2.612,1.542c1.638,0,3.271-0.666,4.005-1.8
			c0.382-0.55,0.356-0.93,0.382-1.475C238.625,361.319,236.776,361.319,235.685,361.558z"/>
		<path fill="#E31B23" d="M248.642,354.866h3.867v1.708c0.617-0.638,1.996-2.063,5.289-2.063c2.897,0,4.202,1.33,4.533,1.708
			c1.045,1.185,1.045,2.705,1.07,4.008v6.669l-3.914-0.023v-6.145c0-0.901-0.051-2.019-0.953-2.78
			c-0.4-0.328-1.043-0.684-2.369-0.684c-1.094,0-1.947,0.282-2.444,0.567c-1.093,0.639-1.212,1.779-1.212,2.561v6.48h-3.867V354.866
			z"/>
		<path fill="#E31B23" d="M281.555,363.147c-1.659,3.251-5.218,4.22-7.712,4.22c-3.981,0-7.732-2.254-7.732-6.521
			c0-4.844,4.553-6.479,7.926-6.479c1.633,0,3.748,0.407,5.337,1.518c1.187,0.853,1.612,1.66,1.943,2.324l-4.079,0.477
			c-0.332-0.428-1.139-1.378-3.201-1.378c-2.278,0-3.965,1.494-3.965,3.512c0,1.565,1.139,3.558,3.918,3.558
			c0.852,0,1.777-0.215,2.487-0.641c0.761-0.449,0.927-0.83,1.093-1.136L281.555,363.147z"/>
		<path fill="#E31B23" d="M286.426,361.535c0.093,0.376,0.306,1.112,0.733,1.612c0.832,0.995,2.158,1.374,3.439,1.374
			c2.536,0,3.463-1.21,3.818-1.661l4.061,0.406c-1.758,2.889-4.699,4.078-8.066,4.078c-2.043,0-4.153-0.38-5.74-1.683
			c-1.591-1.284-2.256-3.203-2.256-4.913c0-4.413,3.77-6.355,8.043-6.355c1.637,0,4.411,0.353,6.238,2.301
			c1.59,1.688,1.613,3.605,1.637,4.841H286.426z M294.015,359.376c-0.068-0.452-0.259-1.143-1.065-1.616
			c-0.57-0.329-1.519-0.616-2.562-0.616c-0.925,0-1.97,0.217-2.681,0.688c-0.691,0.451-0.928,0.972-1.166,1.545H294.015z"/>
		<path fill="#E31B23" d="M325.58,360.678c0,4.367-3.704,6.689-8.211,6.689c-4.909,0-8.254-2.537-8.254-6.499
			c0-4.033,3.605-6.572,8.397-6.545C322.779,354.342,325.58,357.264,325.58,360.678z M313.172,360.919
			c0,0.661,0.258,3.555,4.222,3.555c3.227,0,4.151-2.063,4.151-3.725c0-2.131-1.661-3.703-4.386-3.558
			C314.31,357.333,313.172,359.065,313.172,360.919z"/>
		<path fill="#E31B23" d="M328.787,354.866c0-1.898,0-2.516,0.401-3.321c0.569-1.091,1.662-1.732,3.703-1.732
			c1.047,0,1.756,0.166,2.516,0.355v2.534c-0.332-0.114-0.595-0.185-1.043-0.185c-0.312,0-0.645,0.022-0.926,0.167
			c-0.734,0.38-0.734,0.947-0.734,2.182h2.703v2.325h-2.703v9.681h-3.917v-9.681h-1.921v-2.325H328.787z"/>
		<path fill="#E31B23" d="M460.89,350.121h9.158c0.613,0.024,1.236,0.024,1.852,0.097c4.883,0.447,7.306,3.863,7.306,8.181
			c0,1.924-0.479,3.821-1.64,5.363c-2.344,3.062-5.502,3.081-8.038,3.11h-8.638V350.121z M465.065,353.084v10.821h4.627
			c1.492-0.025,3.203-0.048,4.318-1.639c0.496-0.687,1.021-1.849,1.021-3.961c0-1.587-0.357-2.682-0.836-3.439
			c-1.09-1.735-2.844-1.757-4.293-1.782H465.065z"/>
		<path fill="#E31B23" d="M485.974,354.866v12.006h-3.891v-12.006H485.974z"/>
		<path fill="#E31B23" d="M493.425,356.932c0.572-0.899,1.541-2.401,5.032-2.472v3.539c-0.331-0.024-0.614-0.052-1.021-0.052
			c-0.334,0-1.688,0.027-2.609,0.522c-1.211,0.645-1.402,1.568-1.402,2.613v5.789h-3.936v-12.006h3.936V356.932z"/>
		<path fill="#E31B23" d="M503.512,361.535c0.095,0.376,0.308,1.112,0.734,1.612c0.833,0.995,2.161,1.374,3.44,1.374
			c2.539,0,3.466-1.21,3.822-1.661l4.057,0.406c-1.756,2.889-4.699,4.078-8.065,4.078c-2.042,0-4.154-0.38-5.743-1.683
			c-1.59-1.284-2.254-3.203-2.254-4.913c0-4.413,3.771-6.355,8.039-6.355c1.639,0,4.414,0.353,6.244,2.301
			c1.588,1.688,1.611,3.605,1.635,4.841H503.512z M511.105,359.376c-0.075-0.452-0.263-1.143-1.069-1.616
			c-0.568-0.329-1.518-0.616-2.562-0.616c-0.926,0-1.97,0.217-2.681,0.688c-0.687,0.451-0.924,0.972-1.159,1.545H511.105z"/>
		<path fill="#E31B23" d="M532.77,363.147c-1.661,3.251-5.218,4.22-7.71,4.22c-3.988,0-7.732-2.254-7.732-6.521
			c0-4.844,4.555-6.479,7.922-6.479c1.64,0,3.744,0.407,5.336,1.518c1.188,0.853,1.613,1.66,1.949,2.324l-4.08,0.477
			c-0.335-0.428-1.138-1.378-3.205-1.378c-2.275,0-3.961,1.494-3.961,3.512c0,1.565,1.139,3.558,3.916,3.558
			c0.849,0,1.778-0.215,2.488-0.641c0.762-0.449,0.924-0.83,1.089-1.136L532.77,363.147z"/>
		<path fill="#E31B23" d="M534.843,351.663h3.888v3.203h2.68v2.325h-2.68v5.434c0,1.162,0.403,1.424,1.515,1.424
			c0.551,0,0.786-0.022,1.188-0.072v2.802c-0.949,0.094-1.896,0.187-2.844,0.187c-0.829,0-1.662-0.093-2.328-0.429
			c-1.399-0.733-1.418-2.015-1.418-2.916v-6.429h-1.947v-2.325h1.947V351.663z"/>
		<path fill="#E31B23" d="M558.992,360.678c0,4.367-3.699,6.689-8.213,6.689c-4.907,0-8.253-2.537-8.253-6.499
			c0-4.033,3.607-6.572,8.4-6.545C556.198,354.342,558.992,357.264,558.992,360.678z M546.586,360.919
			c0,0.661,0.261,3.555,4.225,3.555c3.223,0,4.147-2.063,4.147-3.725c0-2.131-1.658-3.703-4.383-3.558
			C547.725,357.333,546.586,359.065,546.586,360.919z"/>
		<path fill="#E31B23" d="M565.62,356.932c0.569-0.899,1.54-2.401,5.028-2.472v3.539c-0.331-0.024-0.618-0.052-1.021-0.052
			c-0.334,0-1.684,0.027-2.608,0.522c-1.207,0.645-1.399,1.568-1.399,2.613v5.789h-3.938v-12.006h3.938V356.932z"/>
		<path fill="#E31B23" d="M576.083,362.794c0.453,1.565,2.02,1.847,3.561,1.847c0.713,0,1.399-0.024,2.063-0.263
			c0.188-0.072,0.878-0.306,0.878-0.973c0-0.831-0.952-0.995-2.755-1.232c-0.946-0.117-1.896-0.166-2.845-0.283
			c-1.255-0.147-4.434-0.523-4.434-3.439c0-2.871,2.965-4.177,6.995-4.177c1.237,0,3.609,0.095,5.388,1.377
			c1.212,0.879,1.491,1.874,1.66,2.443l-4.054,0.261c-0.356-0.854-1.352-1.469-3.231-1.469c-1.612,0-2.727,0.423-2.727,1.185
			c0,0.497,0.476,0.732,1.02,0.854c0.709,0.19,1.093,0.213,4.485,0.542c0.897,0.097,1.923,0.191,2.729,0.594
			c1.162,0.549,1.824,1.637,1.824,2.918c0,1.023-0.425,1.994-1.159,2.658c-0.878,0.808-2.562,1.662-5.956,1.662
			c-5.525,0-7.091-2.04-7.641-4.196L576.083,362.794z"/>
		<rect x="223.441" y="350.127" fill="#E31B23" width="3.89" height="2.66"/>
		<rect x="482.083" y="350.098" fill="#E31B23" width="3.891" height="2.655"/>
	</g>
</g>
<g>
	<path fill="#E31B23" d="M253.341,388.384h3.711l3.596,8.809c0.209,0.553,0.266,0.724,0.4,1.276c0.171-0.61,0.209-0.762,0.438-1.276
		l3.615-8.809h3.615l-6.032,13.433h-3.272L253.341,388.384z"/>
	<path fill="#E31B23" d="M270.765,388.384h3.369v13.433h-3.369V388.384z"/>
	<path fill="#E31B23" d="M279.676,397.649c0.761,1.617,2.683,2.112,4.509,2.112c0.818,0,3.389-0.134,3.389-1.77
		c0-0.971-0.934-1.199-1.656-1.331c-0.552-0.115-3.311-0.533-3.939-0.648c-1.236-0.229-4.356-0.818-4.356-3.862
		c0-0.666,0.19-1.351,0.533-1.902c1.122-1.808,3.595-2.283,5.728-2.283c1.959,0,3.463,0.285,4.852,1.046
		c1.369,0.743,1.959,1.731,2.227,2.17l-3.197,0.799c-0.114-0.21-0.381-0.704-1.18-1.104c-0.895-0.438-2.055-0.514-2.701-0.514
		c-1.485,0-3.008,0.285-3.008,1.56c0,0.876,0.781,1.104,1.789,1.333c0.551,0.113,3.292,0.57,3.92,0.703
		c1.561,0.286,4.205,0.857,4.205,3.806c0,4.319-5.139,4.472-6.831,4.472c-2.208,0-5.614-0.381-7.345-3.787L279.676,397.649z"/>
	<path fill="#E31B23" d="M293.56,388.384h3.369v13.433h-3.369V388.384z"/>
	<path fill="#E31B23" d="M314.706,390.571c0.553,0.666,1.447,2.15,1.447,4.396c0,4.281-2.777,7.287-8.201,7.287
		s-8.297-2.948-8.297-7.135c0-4.624,3.311-6.964,7.726-7.154C310.026,387.851,313.032,388.536,314.706,390.571z M303.118,395.194
		c0,1.637,0.609,2.494,0.856,2.816c0.324,0.458,1.313,1.846,3.921,1.846c3.139,0,4.812-2.131,4.812-4.719
		c0-3.006-2.264-4.852-4.946-4.756C305.517,390.457,303.118,391.94,303.118,395.194z"/>
	<path fill="#E31B23" d="M318.928,388.384h3.35l6.583,7.478c0.799,0.932,0.951,1.122,1.789,2.169
		c-0.115-1.275-0.115-1.618-0.134-2.777v-6.869h3.216v13.433h-3.329l-6.66-7.572c-0.704-0.818-0.989-1.161-1.731-2.112
		c0.096,1.027,0.096,1.255,0.113,2.283v7.401h-3.196V388.384z"/>
	<path d="M336.963,388.384h11.931v1.617h-10.066v4.318h9.686v1.599h-9.686v5.898h-1.864V388.384z"/>
	<path d="M367.44,395.29c0,4.586-3.769,6.889-8.088,6.889c-1.96,0-3.938-0.362-5.518-1.485c-1.313-0.912-2.721-2.587-2.721-5.422
		c0-4.967,4.092-7.212,8.105-7.212C363.921,388.078,367.44,390.838,367.44,395.29z M353.017,395.157c0,1.046,0.267,2.397,1.18,3.425
		c1.256,1.465,3.217,1.941,5.156,1.941c4.967,0,6.165-3.141,6.165-5.423c0-3.54-2.835-5.5-6.507-5.405
		C356.214,389.772,353.017,391.181,353.017,395.157z"/>
	<path d="M386.198,398.126c-0.513,0.912-1.046,1.826-2.379,2.663c-1.654,1.047-3.785,1.352-5.402,1.352
		c-5.461,0-8.163-3.14-8.163-7.136c0-3.178,1.579-4.643,2.493-5.328c0.57-0.456,2.169-1.693,5.613-1.693
		c0.969,0,3.311,0.133,5.118,1.256c1.427,0.894,2.093,2.018,2.454,2.626l-2.055,0.456c-0.305-0.531-0.628-1.103-1.466-1.655
		c-0.818-0.533-2.265-1.008-3.977-1.008c-3.196,0-6.165,1.504-6.165,5.289c0,1.333,0.381,2.702,1.389,3.825
		c0.914,0.933,2.475,1.712,4.891,1.712c2.074,0.021,3.463-0.513,4.281-1.16c0.723-0.533,1.16-1.218,1.351-1.617L386.198,398.126z"/>
	<path d="M391.183,388.384v7.972c0.019,1.561,0.172,2.474,1.332,3.216c0.494,0.324,1.561,0.913,3.691,0.913
		c1.293,0,2.436-0.247,3.178-0.589c1.731-0.78,1.731-2.17,1.731-3.293v-8.219h1.923v8.067c0,1.351,0,3.196-2.056,4.528
		c-0.933,0.609-2.436,1.161-4.796,1.161c-1.75,0-3.52-0.286-4.965-1.294c-1.904-1.312-1.961-3.045-1.961-4.566v-7.896H391.183z"/>
	<path d="M407.238,398.373c0.21,0.247,0.419,0.475,0.933,0.817c1.465,1.009,3.254,1.314,5.023,1.314
		c2.949,0,4.566-1.086,4.566-2.723c0-1.864-2.111-2.035-4.775-2.264c-3.368-0.285-4.529-0.381-5.557-1.313
		c-0.818-0.761-0.951-1.616-0.951-2.245c0-3.824,5.062-3.92,6.299-3.92c1.883,0,3.786,0.306,5.347,1.352
		c0.665,0.457,0.971,0.818,1.351,1.351l-1.731,0.704c-0.285-0.284-0.456-0.475-0.78-0.704c-1.199-0.856-2.683-1.122-4.147-1.122
		c-1.085,0-2.436,0.152-3.235,0.552c-0.933,0.457-1.199,1.142-1.199,1.693c0,0.399,0.153,0.762,0.4,1.027
		c0.457,0.533,1.161,0.646,2.416,0.78c1.219,0.134,2.417,0.209,3.635,0.343c0.571,0.057,1.161,0.133,1.731,0.267
		c1.446,0.343,3.083,1.274,3.083,3.481c0,0.552-0.096,1.408-0.686,2.245c-1.047,1.484-3.12,2.132-5.898,2.132
		c-1.104,0-2.512-0.152-3.463-0.399c-2.76-0.686-3.729-2.094-4.109-2.645L407.238,398.373z"/>
	<path fill="#E31B23" d="M427.288,388.384h3.635l6.488,13.433h-3.768l-1.141-2.53h-6.889l-1.143,2.53H420.8L427.288,388.384z
		 M429.421,392.512c-0.096-0.171-0.172-0.361-0.23-0.532c-0.057-0.171-0.094-0.343-0.113-0.533
		c-0.057,0.172-0.096,0.323-0.133,0.476c-0.076,0.172-0.133,0.343-0.21,0.515l-2.036,4.472h4.719L429.421,392.512z"/>
	<path fill="#E31B23" d="M454.856,397.251c-0.248,0.837-0.552,1.807-1.75,2.91c-1.086,0.99-2.873,2.112-6.299,2.112
		c-4.776,0-8.087-2.492-8.087-7.192c0-5.062,4.034-7.116,8.277-7.116c1.54,0,5.956,0.342,7.706,4.186l-3.691,0.457
		c-0.361-0.57-1.408-2.169-4.015-2.169c-3.044,0-4.776,2.111-4.776,4.681c0,2.93,2.303,4.681,4.852,4.681
		c2.911,0,3.807-1.712,4.244-2.53L454.856,397.251z"/>
	<path fill="#E31B23" d="M456.265,388.384h13.34v2.454h-4.986v10.979h-3.367v-10.979h-4.986V388.384z"/>
	<path fill="#E31B23" d="M472.355,388.384h3.368v13.433h-3.368V388.384z"/>
	<path fill="#E31B23" d="M493.501,390.571c0.553,0.666,1.446,2.15,1.446,4.396c0,4.281-2.777,7.287-8.2,7.287
		c-5.424,0-8.297-2.948-8.297-7.135c0-4.624,3.311-6.964,7.725-7.154C488.82,387.851,491.827,388.536,493.501,390.571z
		 M481.913,395.194c0,1.637,0.609,2.494,0.855,2.816c0.324,0.458,1.314,1.846,3.921,1.846c3.14,0,4.813-2.131,4.813-4.719
		c0-3.006-2.264-4.852-4.947-4.756C484.312,390.457,481.913,391.94,481.913,395.194z"/>
	<path fill="#E31B23" d="M497.722,388.384h3.35l6.584,7.478c0.799,0.932,0.951,1.122,1.788,2.169
		c-0.114-1.275-0.114-1.618-0.134-2.777v-6.869h3.217v13.433h-3.33l-6.66-7.572c-0.704-0.818-0.989-1.161-1.731-2.112
		c0.096,1.027,0.096,1.255,0.114,2.283v7.401h-3.197V388.384z"/>
	<path fill="#E31B23" d="M516.157,388.384h3.102v5.137l-0.494,4.338h-2.151l-0.456-4.338V388.384z M516.157,399.438h3.102v2.378
		h-3.102V399.438z"/>
</g>
</svg>
