<?xml version="1.0" encoding="utf-8"?>
<!-- Generator: Adobe Illustrator 16.0.0, SVG Export Plug-In . SVG Version: 6.00 Build 0)  -->
<!DOCTYPE svg PUBLIC "-//W3C//DTD SVG 1.1//EN" "http://www.w3.org/Graphics/SVG/1.1/DTD/svg11.dtd">
<svg version="1.1" id="Layer_1" xmlns="http://www.w3.org/2000/svg" xmlns:xlink="http://www.w3.org/1999/xlink" x="0px" y="0px"
	 width="144px" height="144px" viewBox="0 0 144 144" enable-background="new 0 0 144 144" xml:space="preserve">
<g>
	<defs>
		<rect id="SVGID_1_" x="17.243" y="17.514" width="109.514" height="109.514"/>
	</defs>
	<clipPath id="SVGID_2_">
		<use xlink:href="#SVGID_1_"  overflow="visible"/>
	</clipPath>
	<g clip-path="url(#SVGID_2_)">
		<defs>
			<rect id="SVGID_3_" x="17.243" y="17.514" width="109.514" height="109.514"/>
		</defs>
		<clipPath id="SVGID_4_">
			<use xlink:href="#SVGID_3_"  overflow="visible"/>
		</clipPath>
		<path clip-path="url(#SVGID_4_)" fill="#009BD1" d="M72,118.375c25.109,0,45.464-20.528,45.464-45.853
			c0-25.323-20.354-45.851-45.464-45.851S26.536,47.199,26.536,72.522C26.536,97.847,46.891,118.375,72,118.375"/>
		<path clip-path="url(#SVGID_4_)" fill="#009BD1" d="M72.087,118.375c25.108,0,45.464-20.528,45.464-45.853
			c0-25.323-20.355-45.851-45.464-45.851c-25.109,0-45.465,20.527-45.465,45.851C26.622,97.847,46.978,118.375,72.087,118.375"/>
	</g>
	<g clip-path="url(#SVGID_2_)">
		<defs>
			<path id="SVGID_5_" d="M26.623,72.523c0,25.322,20.354,45.851,45.463,45.851c25.109,0,45.465-20.528,45.465-45.851
				c0-25.323-20.355-45.852-45.465-45.852C46.978,26.672,26.623,47.2,26.623,72.523"/>
		</defs>
		<clipPath id="SVGID_6_">
			<use xlink:href="#SVGID_5_"  overflow="visible"/>
		</clipPath>
		<g opacity="0.38" clip-path="url(#SVGID_6_)">
			<g>
				<defs>
					<rect id="SVGID_7_" x="63.087" y="17.483" width="66.24" height="76.071"/>
				</defs>
				<clipPath id="SVGID_8_">
					<use xlink:href="#SVGID_7_"  overflow="visible"/>
				</clipPath>
				<path clip-path="url(#SVGID_8_)" fill="#FFFFFF" d="M72.087,25.483l0.087,46.787l45.29,20.285c0,0,9.293-24.186-5.601-47.059
					C99.212,26.067,80.881,25.483,72.087,25.483"/>
			</g>
		</g>
	</g>
	<g clip-path="url(#SVGID_2_)">
		<defs>
			<rect id="SVGID_9_" x="17.243" y="17.514" width="109.514" height="109.514"/>
		</defs>
		<clipPath id="SVGID_10_">
			<use xlink:href="#SVGID_9_"  overflow="visible"/>
		</clipPath>
		<path clip-path="url(#SVGID_10_)" fill="#FFFFFF" d="M96.099,87.009c0-0.381,0.134-0.553,0.572-0.553v-0.298h-2.218v0.298
			c0.383,0,0.528,0.191,0.528,0.496v2.726c0,0.35-0.165,0.516-0.528,0.516v0.297h3.901l0.184-1.079h-0.394
			c-0.476,0.54-0.896,0.782-1.423,0.782c-0.445,0-0.623-0.197-0.623-0.744V87.009z M91.995,88.484h-1.194l0.564-1.597L91.995,88.484
			z M92.142,88.858l0.286,0.736c0.151,0.389,0.051,0.561-0.382,0.599v0.297h2.146v-0.297c-0.26,0-0.425-0.159-0.564-0.522
			l-1.366-3.513h-1.188l0.146,0.299l-1.245,3.17c-0.121,0.305-0.235,0.483-0.667,0.566v0.297h1.493v-0.297
			c-0.407-0.045-0.49-0.331-0.351-0.744l0.203-0.591H92.142z M89.522,87.002c0.14-0.311,0.254-0.508,0.489-0.546v-0.298H88.64v0.298
			c0.502,0.032,0.559,0.432,0.35,0.953l-0.744,1.816l-1.017-2.224c-0.159-0.343-0.083-0.527,0.337-0.546v-0.298h-2.014v0.298
			c0.172,0.019,0.312,0.133,0.47,0.483l1.233,2.726c0.127,0.285,0.278,0.717,0.311,0.908h0.489c0.107-0.395,0.305-0.973,0.433-1.258
			L89.522,87.002z M85.29,90.193c-0.444,0-0.571-0.191-0.571-0.534v-2.625c0-0.35,0.089-0.578,0.571-0.578v-0.298h-2.234v0.298
			c0.419,0,0.546,0.178,0.546,0.566v2.643c0,0.343-0.133,0.528-0.546,0.528v0.297h2.234V90.193z M79.974,89.627
			c0,0.407-0.146,0.566-0.553,0.566v0.297h2.224v-0.297c-0.433,0-0.553-0.172-0.553-0.572v-3.165h0.216
			c0.394,0,0.725,0.203,1.03,0.635h0.398v-0.933h-4.408v0.933h0.399c0.305-0.432,0.636-0.635,1.03-0.635h0.216V89.627z
			 M77.609,87.384v-0.953c-0.425-0.21-1.061-0.361-1.537-0.361c-1.004,0-1.733,0.526-1.733,1.251c0,0.324,0.139,0.571,0.311,0.744
			c0.812,0.812,2.154,0.75,2.154,1.639c0,0.337-0.306,0.572-0.731,0.572c-0.553,0-1.067-0.381-1.182-1.1h-0.508v1.074
			c0.449,0.19,1.169,0.323,1.703,0.323c1.066,0,1.81-0.432,1.81-1.271c0-1.595-2.51-1.468-2.51-2.396c0-0.318,0.272-0.54,0.674-0.54
			c0.547,0,1.004,0.426,1.1,1.017H77.609z M73.137,87.531h-0.419c-0.096,0.381-0.306,0.533-0.832,0.533h-0.764v-1.608h0.896
			c0.534,0,0.782,0.114,1.176,0.61h0.412v-0.908h-4.167v0.298c0.432,0,0.565,0.172,0.565,0.515v2.676
			c0,0.406-0.171,0.547-0.565,0.547v0.297h4.262l0.191-1.073h-0.438c-0.553,0.649-0.907,0.776-1.512,0.776
			c-0.693,0-0.82-0.224-0.82-0.611v-1.22h0.731c0.502,0,0.731,0.102,0.864,0.571h0.419V87.531z M68.606,87.575h-0.425
			c-0.051,0.419-0.312,0.553-0.865,0.553h-0.572v-1.672h0.782c0.617,0,0.845,0.121,1.176,0.61h0.412v-0.908h-4.026v0.298
			c0.432,0,0.54,0.178,0.54,0.572v2.604c0,0.382-0.146,0.561-0.54,0.561v0.297h2.299v-0.297c-0.591,0-0.643-0.197-0.643-0.688v-1.08
			h0.623c0.51,0,0.712,0.185,0.814,0.591h0.425V87.575z M63.066,90.193c-0.343-0.007-0.464-0.217-0.528-0.604l-0.394-2.39
			c-0.082-0.502-0.025-0.743,0.42-0.743h0.089v-0.298H60.92c0.019,0.07,0.024,0.133,0.024,0.228c0,0.681-0.616,1.462-1.042,2.567
			c-0.636-1.537-1.03-2.135-1.049-2.795h-1.587v0.298c0.451,0.038,0.521,0.267,0.451,0.661l-0.389,2.154
			c-0.095,0.521-0.184,0.922-0.559,0.922v0.297h1.435v-0.297h-0.107c-0.286,0-0.463-0.204-0.463-0.528
			c0-0.095,0.012-0.229,0.03-0.356l0.338-1.981h0.013c0.343,0.927,0.61,1.283,1.035,2.351c0.146,0.369,0.204,0.54,0.267,0.812h0.401
			c0.305-1.282,1.01-2.414,1.341-3.221h0.012l0.134,1.073c0.044,0.356,0.19,0.903,0.19,1.341c0,0.344-0.165,0.51-0.495,0.51h-0.063
			v0.297h2.229V90.193z M54.216,87.009c0-0.381,0.134-0.553,0.571-0.553v-0.298H52.57v0.298c0.382,0,0.528,0.191,0.528,0.496v2.726
			c0,0.35-0.166,0.516-0.528,0.516v0.297h3.901l0.184-1.079h-0.394c-0.478,0.54-0.896,0.782-1.423,0.782
			c-0.445,0-0.623-0.197-0.623-0.744V87.009z M52.177,90.193c-0.445,0-0.572-0.191-0.572-0.534v-2.625
			c0-0.35,0.089-0.578,0.572-0.578v-0.298H49.94v0.298c0.419,0,0.546,0.178,0.546,0.566v2.643c0,0.343-0.133,0.528-0.546,0.528
			v0.297h2.236V90.193z M49.127,87.575h-0.426c-0.051,0.419-0.311,0.553-0.863,0.553h-0.573v-1.672h0.782
			c0.616,0,0.845,0.121,1.176,0.61h0.412v-0.908h-4.027v0.298c0.432,0,0.54,0.178,0.54,0.572v2.604c0,0.382-0.146,0.561-0.54,0.561
			v0.297h2.299v-0.297c-0.591,0-0.642-0.197-0.642-0.688v-1.08h0.623c0.509,0,0.712,0.185,0.813,0.591h0.426V87.575z"/>
		<path clip-path="url(#SVGID_10_)" fill="#FFFFFF" d="M73.492,60.535H64.07l4.46-12.58L73.492,60.535z M74.646,63.492l2.255,5.813
			c1.203,3.058,0.401,4.41-3.007,4.711v2.356h16.941v-2.356c-2.056,0-3.358-1.253-4.461-4.109L75.598,42.19h-9.372l1.153,2.356
			l-9.824,25.009c-0.952,2.406-1.854,3.811-5.262,4.461v2.356H64.07v-2.356c-3.208-0.351-3.858-2.605-2.757-5.863l1.604-4.661
			H74.646z"/>
		
			<line clip-path="url(#SVGID_10_)" fill="none" stroke="#FFFFFF" stroke-width="0.173" x1="17.243" y1="72.271" x2="126.757" y2="72.271"/>
		<line clip-path="url(#SVGID_10_)" fill="none" stroke="#FFFFFF" stroke-width="0.173" x1="72" y1="17.514" x2="72" y2="127.027"/>
		
			<ellipse clip-path="url(#SVGID_10_)" fill="none" stroke="#FFFFFF" stroke-width="0.173" cx="72" cy="72.271" rx="37.956" ry="37.682"/>
		
			<ellipse clip-path="url(#SVGID_10_)" fill="none" stroke="#FFFFFF" stroke-width="0.173" cx="72" cy="72.271" rx="42.427" ry="42.12"/>
	</g>
</g>
</svg>
